<svg xmlns="http://www.w3.org/2000/svg" width="24" height="24" viewBox="0 0 24 24" fill="none"><path d="M19.9725 20.4825C20.163 20.416 20.3385 20.3126 20.4889 20.1781C20.6394 20.0437 20.7619 19.8809 20.8493 19.6991C20.9367 19.5172 20.9874 19.3199 20.9985 19.1185C21.0095 18.917 20.9807 18.7153 20.9137 18.525L20.4037 17.0737C20.3376 16.8824 20.2343 16.7061 20.0998 16.5548C19.9654 16.4035 19.8024 16.2802 19.6201 16.192C19.4379 16.1039 19.2401 16.0526 19.038 16.0411C18.8359 16.0296 18.6335 16.0581 18.4425 16.125C15.5437 17.1412 14.5237 14.25 14.0137 12.795C13.5037 11.34 12.4875 8.45625 15.375 7.43625C15.7591 7.30112 16.0739 7.01913 16.2504 6.65214C16.4269 6.28516 16.4505 5.86316 16.3162 5.47875L15.8062 4.0275C15.6709 3.64953 15.3931 3.33947 15.0323 3.16359C14.6714 2.98771 14.256 2.95995 13.875 3.08625C10.2525 4.36125 8.58746 6.57375 11.1337 13.8225C13.68 21.0712 16.35 21.75 19.9725 20.4825Z" stroke="white" stroke-width="1.5"></path><path d="M13.0538 18.0675C12.7483 18.1627 12.4813 18.353 12.2917 18.6108C12.1021 18.8685 11.9999 19.1801 12 19.5C12 19.8978 11.842 20.2794 11.5607 20.5607C11.2794 20.842 10.8978 21 10.5 21C10.1022 21 9.72065 20.842 9.43934 20.5607C9.15804 20.2794 9 19.8978 9 19.5C9 19.1022 8.84196 18.7206 8.56066 18.4393C8.27936 18.158 7.89783 18 7.5 18C7.10218 18 6.72064 18.158 6.43934 18.4393C6.15804 18.7206 6 19.1022 6 19.5C6 19.8978 5.84197 20.2794 5.56066 20.5607C5.27936 20.842 4.89782 21 4.5 21C4.10218 21 3.72064 20.842 3.43934 20.5607C3.15804 20.2794 3 19.8978 3 19.5" stroke="white" stroke-width="1.5"></path></svg>