<svg xmlns="http://www.w3.org/2000/svg" width="19" height="20" viewBox="0 0 19 20" fill="none"><path d="M8.08799 11.8L6.04248 9.625C5.87006 9.44167 5.65846 9.35 5.40767 9.35C5.15688 9.35 4.93744 9.45 4.74934 9.65C4.57693 9.83333 4.49072 10.0667 4.49072 10.35C4.49072 10.6333 4.57693 10.8667 4.74934 11.05L7.42967 13.9C7.60208 14.0833 7.82153 14.175 8.08799 14.175C8.35446 14.175 8.5739 14.0833 8.74632 13.9L14.0834 8.225C14.2559 8.04167 14.3421 7.81667 14.3421 7.55C14.3421 7.28333 14.248 7.05 14.0599 6.85C13.8875 6.66667 13.6681 6.575 13.4016 6.575C13.1351 6.575 12.9157 6.66667 12.7433 6.85L8.08799 11.8ZM9.40464 20C8.10367 20 6.88106 19.7373 5.73683 19.212C4.5926 18.6873 3.59728 17.975 2.75086 17.075C1.90444 16.175 1.23452 15.1167 0.741086 13.9C0.247029 12.6833 0 11.3833 0 10C0 8.61667 0.247029 7.31667 0.741086 6.1C1.23452 4.88333 1.90444 3.825 2.75086 2.925C3.59728 2.025 4.5926 1.31233 5.73683 0.787C6.88106 0.262333 8.10367 0 9.40464 0C10.7056 0 11.9282 0.262333 13.0724 0.787C14.2167 1.31233 15.212 2.025 16.0584 2.925C16.9048 3.825 17.5748 4.88333 18.0682 6.1C18.5623 7.31667 18.8093 8.61667 18.8093 10C18.8093 11.3833 18.5623 12.6833 18.0682 13.9C17.5748 15.1167 16.9048 16.175 16.0584 17.075C15.212 17.975 14.2167 18.6873 13.0724 19.212C11.9282 19.7373 10.7056 20 9.40464 20Z" fill="#D32128"></path></svg>