<svg xmlns="http://www.w3.org/2000/svg" width="9" height="9" viewBox="0 0 9 9" fill="none"><path d="M8.08172 5.32656H5.32662V8.08166C5.32662 8.2278 5.26857 8.36796 5.16523 8.47129C5.06189 8.57463 4.92174 8.63268 4.7756 8.63268C4.62946 8.63268 4.48931 8.57463 4.38597 8.47129C4.28263 8.36796 4.22458 8.2278 4.22458 8.08166V5.32656H1.46948C1.32334 5.32656 1.18318 5.26851 1.07985 5.16517C0.976511 5.06183 0.918457 4.92168 0.918457 4.77554C0.918457 4.6294 0.976511 4.48925 1.07985 4.38591C1.18318 4.28257 1.32334 4.22452 1.46948 4.22452H4.22458V1.46942C4.22458 1.32328 4.28263 1.18312 4.38597 1.07979C4.48931 0.97645 4.62946 0.918396 4.7756 0.918396C4.92174 0.918396 5.06189 0.97645 5.16523 1.07979C5.26857 1.18312 5.32662 1.32328 5.32662 1.46942V4.22452H8.08172C8.22786 4.22452 8.36802 4.28257 8.47135 4.38591C8.57469 4.48925 8.63274 4.6294 8.63274 4.77554C8.63274 4.92168 8.57469 5.06183 8.47135 5.16517C8.36802 5.26851 8.22786 5.32656 8.08172 5.32656Z" fill="#D32128"></path></svg>